<svg width="38" height="45" viewBox="0 0 38 45" fill="current" xmlns="http://www.w3.org/2000/svg">
<g clip-path="url(#clip0_46_476)">
<path d="M19 39.9514C13.5608 39.9514 8.12159 39.2563 2.83139 37.8294L1.41571 37.4636C0.5961 37.2441 0.0745311 36.4758 0.186296 35.6343L0.44708 33.8051C0.819629 31.1709 2.16081 28.7929 4.20983 27.0734L4.65688 26.7075L4.84316 18.4392C4.84316 18.366 4.84316 18.3294 4.84316 18.2563L5.17845 15.6221C5.81179 10.8294 9.23924 6.80506 13.8588 5.26847L14.1569 3.9514C14.6785 1.71969 16.653 0.183105 19 0.183105C21.3098 0.183105 23.3216 1.71969 23.8432 3.9514L24.1412 5.26847C28.7608 6.80506 32.1883 10.8294 32.7843 15.6221L33.1196 18.2929C33.1196 18.366 33.1196 18.4026 33.1196 18.4758L33.3059 26.7075L33.753 27.0734C35.802 28.7929 37.1432 31.2075 37.5157 33.8051L37.7765 35.6343C37.8883 36.4392 37.3667 37.2441 36.5471 37.4636L35.1314 37.8294C29.8785 39.2197 24.4392 39.9514 19 39.9514ZM3.72551 34.6465C13.7098 37.3173 24.2902 37.3173 34.2745 34.6465L34.2 34.2441C33.9392 32.4148 33.0079 30.7319 31.5922 29.5612L30.5863 28.7197C30.2137 28.427 29.9902 27.988 29.9902 27.5124L29.8039 18.5855L29.4686 16.0246C28.9843 12.2563 26.1157 9.10993 22.353 8.1953C21.7196 8.04896 21.2353 7.53676 21.0863 6.91481L20.5647 4.68311C20.3785 3.9514 19.7451 3.47579 19 3.47579C18.2549 3.47579 17.6216 3.98798 17.4353 4.68311L16.9137 6.91481C16.7647 7.53676 16.2804 8.04896 15.6471 8.1953C11.8843 9.10993 9.01571 12.2929 8.53139 16.0612L8.1961 18.6221L8.00982 27.5124C8.00982 27.988 7.78629 28.427 7.41375 28.7197L6.40786 29.5612C4.99218 30.7685 4.06081 32.4148 3.80002 34.2441L3.72551 34.6465Z" fill="current"/>
<path d="M19.0001 44.8537C17.3608 44.8537 15.7216 44.378 14.3059 43.3902C13.5608 42.878 13.3746 41.8537 13.8961 41.0854C14.4177 40.3537 15.4608 40.1707 16.2432 40.6829C17.8824 41.8171 20.1177 41.8171 21.7569 40.6829C22.502 40.1707 23.5452 40.3537 24.104 41.0854C24.6255 41.8171 24.4393 42.8415 23.6942 43.3902C22.2785 44.378 20.6393 44.8537 19.0001 44.8537Z" fill="current"/>
</g>
<defs>
<clipPath id="clip0_46_476">
<rect width="38" height="45" fill="current"/>
</clipPath>
</defs>
</svg>
