<svg width="50" height="50" viewBox="0 0 50 50" fill="current" xmlns="http://www.w3.org/2000/svg">
<g clip-path="url(#clip0_46_572)">
<path d="M24.5679 49.5506C11.0083 49.5506 0 38.4493 0 24.7753C0 11.1012 11.0083 0 24.5679 0C38.1274 0 49.1357 11.1012 49.1357 24.7753C49.1357 38.4493 38.1274 49.5506 24.5679 49.5506ZM24.5679 4.28803C13.3706 4.28803 4.25213 13.4835 4.25213 24.7753C4.25213 36.0671 13.3706 45.2625 24.5679 45.2625C35.7651 45.2625 44.8836 36.0671 44.8836 24.7753C44.8836 13.4835 35.7651 4.28803 24.5679 4.28803Z" fill="current"/>
<path d="M24.5678 37.1628C23.3867 37.1628 22.4418 36.2099 22.4418 35.0188V23.8222C22.4418 22.6311 23.3867 21.6782 24.5678 21.6782C25.749 21.6782 26.6939 22.6311 26.6939 23.8222V35.0188C26.6939 36.2099 25.749 37.1628 24.5678 37.1628Z" fill="current"/>
<path d="M24.5679 17.6287C25.8725 17.6287 26.9302 16.5622 26.9302 15.2465C26.9302 13.9308 25.8725 12.8643 24.5679 12.8643C23.2632 12.8643 22.2056 13.9308 22.2056 15.2465C22.2056 16.5622 23.2632 17.6287 24.5679 17.6287Z" fill="current"/>
</g>
<defs>
<clipPath id="clip0_46_572">
<rect width="49.1357" height="49.5506" fill="current"/>
</clipPath>
</defs>
</svg>
