<svg width="50" height="49" viewBox="0 0 50 49" fill="current" xmlns="http://www.w3.org/2000/svg">
<g clip-path="url(#clip0_46_549)">
<path d="M21.7016 48.5391C20.678 48.5391 19.859 47.7233 19.859 46.7035V35.6904V28.9194C6.75619 27.1246 4.17656 25.7378 0.327594 15.4997C0.122862 14.9694 0.204755 14.3576 0.49138 13.8681C0.778005 13.3786 1.31031 13.0523 1.88356 13.0115C10.3185 12.1957 16.3377 15.3773 19.859 19.0484V16.3155C19.859 16.3155 19.859 16.3155 19.859 16.2747V16.2339V15.826C19.9819 11.3392 20.2685 0.856306 34.3131 0.162887C34.8045 0.122097 35.2959 0.326044 35.6644 0.652359C36.0329 0.978674 36.2376 1.46815 36.2376 1.95762C36.3195 7.87207 34.8045 12.2773 31.6926 15.0918C29.5634 17.0089 26.6562 18.1102 23.5442 18.151V25.901V25.9418V26.9207C27.1475 21.9036 34.0675 16.8865 47.3341 17.1313C47.8255 17.1313 48.3168 17.3352 48.6444 17.7023C48.972 18.0694 49.1767 18.5589 49.1358 19.0484C48.3168 33.6509 33.4942 37.5259 23.5442 37.5667V46.7035C23.5442 47.7233 22.7253 48.5391 21.7016 48.5391ZM45.2049 20.8023C30.4642 21.1694 25.6325 29.2457 24.0765 33.8957C32.143 33.7325 43.4033 30.8365 45.2049 20.8023ZM4.70886 16.601C7.24754 22.7602 9.21297 23.7391 19.5724 25.1668C18.344 22.2707 13.8399 16.6418 4.70886 16.601ZM32.5115 4.03787C24.7317 5.13919 23.7899 10.3602 23.5852 14.5207C25.1821 14.4392 27.3932 14.0313 29.1948 12.3997C31.1603 10.6457 32.2658 7.83128 32.5115 4.03787Z" fill="current"/>
</g>
<defs>
<clipPath id="clip0_46_549">
<rect width="49.1357" height="48.5393" fill="current"/>
</clipPath>
</defs>
</svg>
