<svg width="40" height="50" viewBox="0 0 40 50" fill="current" xmlns="http://www.w3.org/2000/svg">
<g clip-path="url(#clip0_46_552)">
<path d="M33.8122 49.3472H5.29593C2.48504 49.3472 0.203735 47.0728 0.203735 44.2703V12.1843C0.203735 9.38187 2.48504 7.10742 5.29593 7.10742H6.55879C7.57723 7.10742 8.39198 7.91973 8.39198 8.93511C8.39198 9.95049 7.57723 10.7628 6.55879 10.7628H5.29593C4.52191 10.7628 3.87011 11.4126 3.87011 12.1843V44.2703C3.87011 45.042 4.52191 45.6919 5.29593 45.6919H33.8122C34.5862 45.6919 35.238 45.042 35.238 44.2703V12.1843C35.238 11.4126 34.5862 10.7628 33.8122 10.7628H32.753C31.7346 10.7628 30.9198 9.95049 30.9198 8.93511C30.9198 7.91973 31.7346 7.10742 32.753 7.10742H33.8122C36.6231 7.10742 38.9044 9.38187 38.9044 12.1843V44.2703C38.9044 47.0728 36.6231 49.3472 33.8122 49.3472Z" fill="current"/>
<path d="M28.72 15.2308H10.3881C9.36968 15.2308 8.55493 14.4184 8.55493 13.4031V11.2911C8.55493 8.28555 10.6325 5.76741 13.4434 5.07695C14.136 2.2745 16.6617 0.203125 19.6763 0.203125H20.2059C23.1797 0.203125 25.7054 2.31512 26.3572 5.07695C28.8015 5.76741 30.5939 8.00125 30.5939 10.6412V13.4031C30.5532 14.4184 29.7384 15.2308 28.72 15.2308ZM12.2213 11.5754H26.8868V10.6818C26.8868 9.50401 25.9091 8.52924 24.7277 8.52924C23.6686 8.52924 22.8131 7.67632 22.8131 6.62033V6.49848C22.8131 5.03634 21.6317 3.85849 20.1651 3.85849H19.6355C18.1283 3.85849 16.9061 5.11757 16.9061 6.62033C16.9061 7.67632 16.0506 8.52924 14.9915 8.52924C13.4434 8.52924 12.2213 9.78831 12.2213 11.2911V11.5754Z" fill="current"/>
<path d="M11.2028 29.446C10.6732 29.446 10.1436 29.2023 9.81773 28.7962L7.37348 25.9531C6.72168 25.1814 6.80316 24.0442 7.57717 23.3943C8.35118 22.7445 9.49183 22.8257 10.1436 23.5974L11.1621 24.8159L14.0544 21.4042C14.7062 20.6325 15.8469 20.5513 16.6209 21.1605C17.3949 21.8103 17.4764 22.9476 16.8653 23.7192L12.5879 28.7962C12.262 29.2023 11.7324 29.446 11.2028 29.446Z" fill="current"/>
<path d="M11.2028 41.2246C10.6732 41.2246 10.1436 40.9809 9.81773 40.5747L7.37348 37.7316C6.72168 36.96 6.80316 35.8227 7.57717 35.1729C8.35118 34.523 9.49183 34.6043 10.1436 35.376L11.1621 36.5944L14.0544 33.1827C14.7062 32.4111 15.8469 32.2892 16.6209 32.9391C17.3949 33.5889 17.4764 34.7261 16.8653 35.4978L12.5879 40.5747C12.262 40.9809 11.7324 41.2246 11.2028 41.2246Z" fill="current"/>
<path d="M28.9236 26.8062H20.9798C19.9614 26.8062 19.1466 25.9939 19.1466 24.9786C19.1466 23.9632 19.9614 23.1509 20.9798 23.1509H28.9236C29.9421 23.1509 30.7568 23.9632 30.7568 24.9786C30.7568 25.9939 29.9421 26.8062 28.9236 26.8062Z" fill="current"/>
<path d="M28.9236 38.5846H20.9798C19.9614 38.5846 19.1466 37.7723 19.1466 36.7569C19.1466 35.7415 19.9614 34.9292 20.9798 34.9292H28.9236C29.9421 34.9292 30.7568 35.7415 30.7568 36.7569C30.7568 37.7723 29.9421 38.5846 28.9236 38.5846Z" fill="current"/>
</g>
<defs>
<clipPath id="clip0_46_552">
<rect width="39.108" height="49.5506" fill="current"/>
</clipPath>
</defs>
</svg>
