<svg width="55" height="36" viewBox="0 0 55 36" fill="current" xmlns="http://www.w3.org/2000/svg">
<g clip-path="url(#clip0_3_875)">
<path d="M49.0768 36.0001H35.9614H5.92296C2.7922 36.0001 0.211426 33.3858 0.211426 30.2144V12.6429C0.211426 9.4715 2.7922 6.85721 5.92296 6.85721H17.1345V6.00007C17.1345 2.82864 19.7153 0.214355 22.846 0.214355H32.1537C35.2845 0.214355 37.8653 2.82864 37.8653 6.00007V10.7144H49.0768C52.2076 10.7144 54.7883 13.3286 54.7883 16.5001V30.2144C54.7883 33.3858 52.2076 36.0001 49.0768 36.0001ZM37.8653 32.1429H49.0768C50.1345 32.1429 50.9807 31.2858 50.9807 30.2144V16.5001C50.9807 15.4286 50.1345 14.5715 49.0768 14.5715H37.8653V32.1429ZM20.9422 32.1429H34.0576V6.00007C34.0576 4.92864 33.2114 4.0715 32.1537 4.0715H22.846C21.7883 4.0715 20.9422 4.92864 20.9422 6.00007V32.1429ZM5.92296 10.7144C4.86527 10.7144 4.01912 11.5715 4.01912 12.6429V30.2144C4.01912 31.2858 4.86527 32.1429 5.92296 32.1429H17.1345V10.7144H5.92296Z" fill="current"/>
</g>
<defs>
<clipPath id="clip0_3_875">
<rect width="55" height="36" fill="current"/>
</clipPath>
</defs>
</svg>
