<svg width="52" height="44" viewBox="0 0 52 44" fill="current" xmlns="http://www.w3.org/2000/svg">
<g clip-path="url(#clip0_46_499)">
<path d="M21.1002 31.9833H2.86105C1.28747 31.9833 0 30.6896 0 29.1084V14.0151C0 12.6135 1.10866 11.4995 2.50342 11.4995H21.1002C23.6752 11.4995 25.7495 13.5838 25.7495 16.1713V27.3116C25.7495 29.899 23.6752 31.9833 21.1002 31.9833ZM3.57631 28.3897H21.1002C21.7082 28.3897 22.1731 27.9225 22.1731 27.3116V16.1713C22.1731 15.5603 21.7082 15.0932 21.1002 15.0932H3.57631V28.3897Z" fill="current"/>
<path d="M43.9886 43.3035H11.8018C7.86785 43.3035 4.64917 40.0692 4.64917 36.1162V30.1866H8.22548V36.1162C8.22548 38.0927 9.83482 39.7098 11.8018 39.7098H43.9886C45.9556 39.7098 47.5649 38.0927 47.5649 36.1162V7.1873C47.5649 5.21079 45.9556 3.59365 43.9886 3.59365H11.8018C9.83482 3.59365 8.22548 5.21079 8.22548 7.1873V13.2965H4.64917V7.1873C4.64917 3.23428 7.86785 0 11.8018 0H43.9886C47.9226 0 51.1412 3.23428 51.1412 7.1873V36.1162C51.1412 40.0692 47.9226 43.3035 43.9886 43.3035Z" fill="current"/>
<path d="M15.7358 24.6165C17.3159 24.6165 18.5969 23.3294 18.5969 21.7416C18.5969 20.1538 17.3159 18.8667 15.7358 18.8667C14.1557 18.8667 12.8748 20.1538 12.8748 21.7416C12.8748 23.3294 14.1557 24.6165 15.7358 24.6165Z" fill="current"/>
</g>
<defs>
<clipPath id="clip0_46_499">
<rect width="51.1413" height="43.4831" fill="current"/>
</clipPath>
</defs>
</svg>
